<?xml version="1.0" encoding="utf-8"?>
<!-- Generator: Adobe Illustrator 24.3.0, SVG Export Plug-In . SVG Version: 6.00 Build 0)  -->
<svg version="1.1" id="Capa_1" xmlns="http://www.w3.org/2000/svg" xmlns:xlink="http://www.w3.org/1999/xlink" x="0px" y="0px"
	 viewBox="0 0 468.1 468.1" style="enable-background:new 0 0 468.1 468.1;" xml:space="preserve">
<style type="text/css">
	.st0{fill:#FFFFFF;stroke:#000000;stroke-miterlimit:10;}
</style>
<rect x="43" y="53" class="st0" width="378" height="361"/>
<g>
	<path d="M431.4,0.2H36.7C16.5,0.2,0,16.7,0,36.9v394.3c0,20.2,16.5,36.7,36.7,36.7h394.7c20.2,0,36.7-16.5,36.7-36.7V36.9
		C468.1,16.7,451.6,0.2,431.4,0.2z M381.3,326.9c14.2,14.2,14.2,37.3,0,51.5c-7.1,7.1-16.5,10.7-25.8,10.7
		c-9.3,0-18.6-3.6-25.7-10.7L234,282.8l-95.7,95.7c-7.1,7.1-16.4,10.7-25.7,10.7c-9.3,0-18.6-3.6-25.8-10.7
		c-14.2-14.2-14.2-37.3,0-51.5l95.7-95.7l-95.7-95.7c-14.2-14.2-14.2-37.3,0-51.5c14.2-14.2,37.3-14.2,51.5,0l95.7,95.7L329.7,84
		c14.2-14.2,37.3-14.2,51.5,0c14.2,14.2,14.2,37.3,0,51.5l-95.7,95.7L381.3,326.9z"/>
</g>
</svg>
