<svg width="18" height="18" viewBox="0 0 18 18" fill="none" xmlns="http://www.w3.org/2000/svg">
<g clip-path="url(#clip0)">
<path d="M0.375013 0.000965118C0.456858 0.000965118 0.532654 0.0276133 0.594177 0.0723669L0.594738 0.0720857L3.95431 2.50003L4.66788 5.1639L14.8098 2.44624L17.5273 12.5885C17.7278 12.5352 17.9332 12.6538 17.9871 12.8538C18.0404 13.0537 17.9217 13.2592 17.7217 13.313L9.37055 15.5509C9.46667 16.6198 8.78387 17.636 7.71105 17.9239C7.51604 17.9755 7.31994 18.0008 7.12767 18.0008C6.13395 18.0008 5.22485 17.3378 4.9557 16.3326C4.66784 15.2597 5.20675 14.1606 6.1812 13.7096L3.94331 5.35814L3.29841 2.95161L0.155254 0.679932V0.679651C0.0613518 0.611519 -0.000169754 0.501129 -0.000169754 0.375868C-0.000169754 0.168765 0.16791 0.000965118 0.375013 0.000965118ZM10.2918 4.43392L8.84321 4.82201L9.40244 6.90996L9.7496 6.60234L10.0298 6.35351L10.3972 6.42878L10.8515 6.52163L10.2918 4.43392ZM5.82967 15.0005C5.62971 15.3476 5.57645 15.7514 5.68026 16.1386C5.85548 16.7934 6.45095 17.2505 7.1277 17.2505C7.25789 17.2505 7.38919 17.2334 7.51716 17.1988C8.31587 16.9851 8.79156 16.1606 8.57789 15.3619C8.40211 14.7071 7.8072 14.2501 7.13045 14.2501C6.9997 14.2501 6.86843 14.2671 6.74043 14.3017C6.35371 14.405 6.03017 14.6533 5.82967 15.0005ZM6.90467 13.5113C6.97994 13.5036 7.05518 13.4998 7.13045 13.4998C8.00604 13.4998 8.81575 14.015 9.17993 14.8253L16.8033 12.7823L14.2798 3.36493L11.0163 4.23916L11.6958 6.77535L11.0685 7.33151L10.2467 7.16343L9.61938 7.71988L8.79814 7.5518L8.11864 5.01561L4.86176 5.88819L6.90467 13.5113Z" fill="#303030"/>
<path d="M7.02352 15.4022C7.22349 15.3489 7.42891 15.4676 7.48273 15.6675C7.53603 15.8675 7.41738 16.0729 7.21741 16.1267C7.01744 16.1806 6.81202 16.0614 6.7582 15.8614C6.70437 15.6615 6.82303 15.4555 7.02352 15.4022Z" fill="#303030"/>
</g>
<defs>
<clipPath id="clip0">
<rect width="18" height="18" fill="white" transform="matrix(-1 0 0 1 18 0)"/>
</clipPath>
</defs>
</svg>
