<!DOCTYPE svg PUBLIC "-//W3C//DTD SVG 20010904//EN" "http://www.w3.org/TR/2001/REC-SVG-20010904/DTD/svg10.dtd">
<svg version="1.0" xmlns="http://www.w3.org/2000/svg" width="594px" height="737px" viewBox="0 0 5940 7370" preserveAspectRatio="xMidYMid meet">
<g id="layer101" fill="#000000" stroke="none">
 <path d="M4460 6304 c-806 -579 -1469 -1053 -1475 -1053 -5 0 -671 467 -1480 1038 l-1470 1039 -3 -924 c-2 -871 -3 -924 -20 -925 -10 0 -12 -3 -4 -6 9 -3 12 -56 12 -213 0 -157 -3 -210 -12 -213 -10 -4 -10 -6 0 -6 18 -1 18 -407 0 -414 -10 -4 -10 -6 0 -6 18 -1 18 -407 0 -414 -10 -4 -10 -6 0 -6 9 -1 12 -49 12 -205 0 -154 -3 -206 -12 -209 -10 -4 -10 -6 0 -6 18 -1 18 -417 0 -424 -10 -4 -10 -6 0 -6 9 -1 12 -49 12 -205 0 -154 -3 -206 -12 -209 -10 -4 -10 -6 0 -6 18 -1 18 -407 0 -414 -10 -4 -10 -6 0 -6 9 -1 12 -49 12 -206 0 -157 -3 -205 -12 -205 -9 0 -9 -3 1 -9 12 -8 13 -42 7 -203 -6 -165 -7 -535 -6 -1685 l0 -203 2965 0 2965 0 0 3674 c0 2021 -3 3677 -7 3679 -5 2 -667 -470 -1473 -1049z"/>
 <path d="M3 7163 c4 -3 10 -3 14 0 3 4 0 7 -7 7 -7 0 -10 -3 -7 -7z"/>
 <path d="M3 6733 c4 -3 10 -3 14 0 3 4 0 7 -7 7 -7 0 -10 -3 -7 -7z"/>
 <path d="M3 6313 c4 -3 10 -3 14 0 3 4 0 7 -7 7 -7 0 -10 -3 -7 -7z"/>
 <path d="M3 5893 c4 -3 10 -3 14 0 3 4 0 7 -7 7 -7 0 -10 -3 -7 -7z"/>
 </g>

</svg>