<svg width="24" height="23" viewBox="0 0 24 23" fill="none" xmlns="http://www.w3.org/2000/svg">
<g clip-path="url(#clip0)">
<path d="M16.4961 0H7.87109C3.90216 0 0.683594 3.21856 0.683594 7.1875V15.8125C0.683594 19.7814 3.90216 23 7.87109 23H16.4961C20.465 23 23.6836 19.7814 23.6836 15.8125V7.1875C23.6836 3.21856 20.465 0 16.4961 0ZM21.5273 15.8125C21.5273 18.5869 19.2705 20.8438 16.4961 20.8438H7.87109C5.09672 20.8438 2.83984 18.5869 2.83984 15.8125V7.1875C2.83984 4.41313 5.09672 2.15625 7.87109 2.15625H16.4961C19.2705 2.15625 21.5273 4.41313 21.5273 7.1875V15.8125Z" fill="#E0E0E0"/>
<path d="M12.1836 5.75C9.00816 5.75 6.43359 8.32456 6.43359 11.5C6.43359 14.6754 9.00816 17.25 12.1836 17.25C15.359 17.25 17.9336 14.6754 17.9336 11.5C17.9336 8.32456 15.359 5.75 12.1836 5.75ZM12.1836 15.0938C10.2027 15.0938 8.58984 13.4809 8.58984 11.5C8.58984 9.51769 10.2027 7.90625 12.1836 7.90625C14.1645 7.90625 15.7773 9.51769 15.7773 11.5C15.7773 13.4809 14.1645 15.0938 12.1836 15.0938Z" fill="#E0E0E0"/>
<path d="M18.3648 6.08486C18.788 6.08486 19.131 5.74183 19.131 5.31868C19.131 4.89552 18.788 4.55249 18.3648 4.55249C17.9417 4.55249 17.5986 4.89552 17.5986 5.31868C17.5986 5.74183 17.9417 6.08486 18.3648 6.08486Z" fill="#E0E0E0"/>
</g>
<defs>
<clipPath id="clip0">
<rect width="23" height="23" fill="white" transform="translate(0.683594)"/>
</clipPath>
</defs>
</svg>
