<?xml version="1.0" encoding="utf-8"?>
<!DOCTYPE svg PUBLIC "-//W3C//DTD SVG 20010904//EN" "http://www.w3.org/TR/2001/REC-SVG-20010904/DTD/svg10.dtd">
<svg version="1.0" xmlns="http://www.w3.org/2000/svg" width="439px" height="439px" viewBox="0 0 439 439" preserveAspectRatio="xMidYMid meet">
 <g fill="#ffffff">
  <path d="M22.3 438 c-8.7 -1.8 -15.1 -7.1 -19.1 -15.9 -2.1 -4.6 -2.4 -6.4 -2 -13 0.4 -6.1 1 -8.5 3.2 -12.1 1.6 -2.5 41.7 -43.4 89.3 -91.1 l86.4 -86.5 -87.2 -86.9 c-98.3 -97.9 -92.5 -91.2 -91.7 -105.6 0.4 -7.3 0.8 -8.5 4.4 -13.7 7.3 -10.6 20.5 -14.7 32.9 -10.2 5.8 2.2 9.1 5.3 93.5 89.6 l87.5 87.4 87.5 -87.4 c84.4 -84.3 87.7 -87.4 93.5 -89.6 12.4 -4.5 25.6 -0.4 32.9 10.2 3.6 5.2 4 6.4 4.4 13.7 0.8 14.4 6.6 7.7 -91.7 105.6 l-87.2 86.9 86.4 86.5 c47.6 47.7 87.7 88.6 89.3 91.1 2.2 3.6 2.8 6 3.2 12.1 0.4 6.6 0.1 8.4 -2 13 -5 10.9 -13.3 16.2 -25.4 16.2 -5.4 0 -8.1 -0.5 -11.9 -2.4 -3.8 -1.9 -24.5 -22.1 -91.9 -89.7 l-87.1 -87.4 -87.1 87.4 c-62.8 62.9 -88.3 87.9 -91.5 89.5 -5.2 2.5 -12.8 3.5 -18.6 2.3z"/>
 </g>
</svg>