<svg width="18" height="18" viewBox="0 0 18 18" fill="none" xmlns="http://www.w3.org/2000/svg">
<g clip-path="url(#clip0)">
<path d="M9 18C8.96775 18 8.93625 17.9955 8.90475 17.9873C8.8305 17.9685 1.5 15.96 1.5 9.13426V3C1.5 2.8425 1.5975 2.703 1.74525 2.64825L8.87025 0.0232504C8.9535 -0.00749963 9.04575 -0.00749963 9.12975 0.0232504L16.2548 2.64825C16.4025 2.703 16.5 2.8425 16.5 3V9.13426C16.5 15.9608 9.1695 17.9685 9.09525 17.988C9.06375 17.9955 9.03225 18 9 18ZM2.25 3.26175V9.13426C2.25 15.0458 8.1375 16.9838 9 17.2358C9.8625 16.9838 15.75 15.0458 15.75 9.13426V3.26175L9 0.775501L2.25 3.26175Z" fill="#303030"/>
<path d="M9 13.5C6.51825 13.5 4.5 11.4818 4.5 9C4.5 6.51825 6.51825 4.5 9 4.5C11.4818 4.5 13.5 6.51825 13.5 9C13.5 11.4818 11.4818 13.5 9 13.5ZM9 5.25C6.93225 5.25 5.25 6.93225 5.25 9C5.25 11.0677 6.93225 12.75 9 12.75C11.0677 12.75 12.75 11.0677 12.75 9C12.75 6.93225 11.0677 5.25 9 5.25Z" fill="#303030"/>
<path d="M10.5 10.875C10.404 10.875 10.308 10.8383 10.2345 10.7655L8.7345 9.26551C8.66475 9.19501 8.625 9.09976 8.625 9.00001V6.75C8.625 6.543 8.793 6.375 9 6.375C9.207 6.375 9.375 6.543 9.375 6.75V8.84476L10.7655 10.2353C10.9118 10.3815 10.9118 10.6193 10.7655 10.7655C10.692 10.8383 10.596 10.875 10.5 10.875Z" fill="#303030"/>
</g>
<defs>
<clipPath id="clip0">
<rect width="18" height="18" fill="white"/>
</clipPath>
</defs>
</svg>
