<svg width="26" height="15" viewBox="0 0 26 15" fill="none" xmlns="http://www.w3.org/2000/svg">
<path d="M25.8621 13.5466C25.8306 13.478 25.8013 13.4211 25.774 13.3755C25.3229 12.554 24.4609 11.5456 23.1884 10.3502L23.1615 10.3228L23.1481 10.3094L23.1345 10.2956H23.1208C22.5433 9.73891 22.1776 9.36461 22.0245 9.17298C21.7442 8.80793 21.6815 8.43842 21.8346 8.06402C21.9428 7.78115 22.3492 7.18377 23.053 6.27105C23.4231 5.78734 23.7163 5.39966 23.9328 5.10759C25.4942 3.00858 26.1711 1.66729 25.9634 1.08319L25.8828 0.94669C25.8286 0.864514 25.6887 0.789337 25.4634 0.720777C25.2375 0.65236 24.9488 0.641046 24.5967 0.686641L20.6981 0.713873C20.635 0.691243 20.5448 0.693352 20.4273 0.720777C20.31 0.748201 20.2513 0.761961 20.2513 0.761961L20.1834 0.796241L20.1295 0.837425C20.0844 0.864657 20.0348 0.912554 19.9806 0.981019C19.9267 1.04924 19.8816 1.12931 19.8455 1.22055C19.4211 2.32475 18.9385 3.35139 18.3969 4.3004C18.063 4.86628 17.7563 5.3567 17.4762 5.77195C17.1965 6.18705 16.9619 6.49289 16.7725 6.68893C16.5828 6.88517 16.4117 7.04238 16.2579 7.16114C16.1045 7.27994 15.9873 7.33014 15.9062 7.31178C15.8249 7.29341 15.7483 7.2752 15.6758 7.25698C15.5495 7.1748 15.448 7.06304 15.3714 6.92161C15.2945 6.78017 15.2427 6.60215 15.2156 6.3877C15.1887 6.1731 15.1728 5.98851 15.1682 5.83332C15.164 5.67831 15.1659 5.45906 15.1751 5.17619C15.1845 4.89318 15.1887 4.70169 15.1887 4.60129C15.1887 4.25446 15.1954 3.87805 15.2088 3.47196C15.2225 3.06588 15.2335 2.74412 15.2428 2.50709C15.252 2.26981 15.2562 2.01877 15.2562 1.75412C15.2562 1.48947 15.2403 1.28192 15.2088 1.13128C15.1777 0.980826 15.13 0.834788 15.067 0.693209C15.0037 0.551773 14.9111 0.442364 14.7895 0.364694C14.6677 0.287121 14.5163 0.22556 14.3361 0.179821C13.8577 0.0703642 13.2486 0.011153 12.5084 0.00194768C10.8299 -0.0162712 9.75134 0.0933293 9.27303 0.330606C9.08351 0.430857 8.91202 0.567834 8.75868 0.741105C8.59619 0.941943 8.57353 1.05154 8.69083 1.06957C9.23239 1.1516 9.61578 1.34784 9.84143 1.65809L9.92274 1.82249C9.98599 1.9411 10.0491 2.1511 10.1124 2.45219C10.1755 2.75328 10.2162 3.08635 10.2341 3.45121C10.2792 4.11749 10.2792 4.68783 10.2341 5.16229C10.1889 5.63694 10.1463 6.00644 10.1055 6.2711C10.0648 6.53575 10.0039 6.75021 9.92274 6.91441C9.84143 7.07867 9.78733 7.17907 9.76021 7.2155C9.73314 7.25194 9.71057 7.27491 9.69264 7.28392C9.57534 7.32937 9.45334 7.35253 9.32708 7.35253C9.20063 7.35253 9.04729 7.28857 8.86683 7.16075C8.68642 7.03293 8.49918 6.85736 8.30511 6.63375C8.11105 6.41009 7.89218 6.09754 7.64843 5.69605C7.40486 5.29457 7.15214 4.82006 6.89042 4.27254L6.67388 3.87546C6.53851 3.62002 6.35359 3.24806 6.11894 2.75994C5.88415 2.27163 5.67661 1.79928 5.4962 1.343C5.42409 1.15136 5.31575 1.00547 5.17137 0.905075L5.10361 0.86389C5.05857 0.827453 4.98626 0.788761 4.88707 0.747529C4.78774 0.706345 4.68409 0.676811 4.57571 0.65864L0.866541 0.685873C0.487513 0.685873 0.230338 0.7727 0.0949232 0.946115L0.0407288 1.02815C0.0136553 1.07384 0 1.14681 0 1.24725C0 1.34765 0.0270735 1.47087 0.0812679 1.61676C0.622738 2.90359 1.21157 4.14462 1.84778 5.34007C2.48398 6.53551 3.03683 7.49847 3.50599 8.22809C3.97525 8.95823 4.45357 9.64734 4.94094 10.2951C5.42831 10.943 5.75091 11.3583 5.90875 11.5407C6.06679 11.7235 6.19092 11.8601 6.28115 11.9513L6.61964 12.2798C6.83622 12.4989 7.15428 12.7612 7.57394 13.0669C7.9937 13.3727 8.4584 13.6738 8.9683 13.9706C9.47828 14.267 10.0716 14.5088 10.7485 14.6958C11.4253 14.883 12.0841 14.9582 12.7249 14.9219H14.2817C14.5975 14.8944 14.8367 14.794 14.9992 14.6207L15.0531 14.5521C15.0893 14.4976 15.1232 14.413 15.1545 14.2991C15.1862 14.1851 15.2019 14.0594 15.2019 13.9227C15.1927 13.5304 15.2222 13.1768 15.2897 12.862C15.3572 12.5473 15.4341 12.31 15.5201 12.1502C15.6061 11.9906 15.7031 11.8558 15.8111 11.7466C15.9193 11.6372 15.9964 11.5709 16.0416 11.548C16.0865 11.5251 16.1224 11.5095 16.1495 11.5001C16.3661 11.4272 16.621 11.4978 16.9146 11.7125C17.2079 11.9269 17.4831 12.1917 17.7404 12.5064C17.9977 12.8214 18.3067 13.1748 18.6676 13.5672C19.0288 13.9596 19.3446 14.2514 19.6152 14.4433L19.8858 14.6076C20.0666 14.7172 20.3012 14.8176 20.5901 14.9088C20.8784 15 21.131 15.0228 21.3479 14.9772L24.8133 14.9226C25.1561 14.9226 25.4228 14.8652 25.612 14.7513C25.8015 14.6372 25.9141 14.5116 25.9504 14.3749C25.9867 14.2381 25.9886 14.0828 25.9573 13.9092C25.9252 13.7361 25.8936 13.6151 25.8621 13.5466Z" fill="black"/>
</svg>
