<svg width="41" height="23" viewBox="0 0 41 23" fill="none" xmlns="http://www.w3.org/2000/svg">
<mask id="path-1-inside-1" fill="white">
<path d="M39.9695 20.6189C39.9209 20.5145 39.8755 20.4279 39.8334 20.3585C39.1362 19.1081 37.804 17.5733 35.8374 15.7537L35.7958 15.712L35.775 15.6916L35.754 15.6706H35.7329C34.8404 14.8233 34.2752 14.2536 34.0385 13.9619C33.6054 13.4063 33.5084 12.8439 33.7451 12.274C33.9123 11.8435 34.5404 10.9342 35.628 9.54498C36.2001 8.80874 36.6532 8.21866 36.9878 7.7741C39.4009 4.57927 40.4471 2.53774 40.1261 1.64869L40.0015 1.44093C39.9177 1.31585 39.7016 1.20143 39.3533 1.09707C39.0042 0.992938 38.558 0.975716 38.0139 1.04512L31.9887 1.08656C31.8911 1.05212 31.7517 1.05533 31.5701 1.09707C31.3888 1.13881 31.298 1.15976 31.298 1.15976L31.1932 1.21193L31.1099 1.27462C31.0402 1.31607 30.9635 1.38897 30.8797 1.49318C30.7964 1.59702 30.7267 1.71889 30.671 1.85776C30.015 3.53844 29.2692 5.10104 28.4321 6.5455C27.916 7.40682 27.4421 8.15328 27.0092 8.78531C26.577 9.41713 26.2143 9.88263 25.9216 10.181C25.6285 10.4797 25.364 10.719 25.1264 10.8997C24.8892 11.0806 24.7082 11.157 24.5828 11.129C24.4571 11.1011 24.3388 11.0734 24.2267 11.0456C24.0316 10.9205 23.8746 10.7504 23.7563 10.5352C23.6374 10.3199 23.5574 10.0489 23.5156 9.72252C23.4739 9.39589 23.4493 9.11494 23.4423 8.87872C23.4358 8.64279 23.4388 8.30908 23.4529 7.87853C23.4674 7.44776 23.4739 7.1563 23.4739 7.00349C23.4739 6.47559 23.4843 5.90267 23.505 5.28457C23.5261 4.66648 23.5432 4.17675 23.5575 3.81596C23.5717 3.45481 23.5783 3.07271 23.5783 2.66989C23.5783 2.26707 23.5537 1.95117 23.505 1.72188C23.4569 1.49289 23.3831 1.27061 23.2859 1.05511C23.1881 0.839837 23.0449 0.673309 22.857 0.55509C22.6688 0.437018 22.4347 0.343318 22.1562 0.2737C21.4169 0.107099 20.4755 0.0169756 19.3315 0.00296451C16.7374 -0.0247658 15.0706 0.142054 14.3313 0.503205C14.0384 0.655795 13.7734 0.864283 13.5364 1.12801C13.2853 1.4337 13.2503 1.60052 13.4316 1.62796C14.2685 1.75282 14.8611 2.05151 15.2098 2.52373L15.3355 2.77396C15.4332 2.9545 15.5308 3.27412 15.6285 3.7324C15.726 4.19069 15.789 4.69764 15.8167 5.25298C15.8863 6.2671 15.8863 7.13521 15.8167 7.85737C15.7468 8.57982 15.6809 9.14223 15.618 9.54505C15.555 9.94787 15.4609 10.2743 15.3355 10.5242C15.2098 10.7742 15.1262 10.927 15.0843 10.9825C15.0424 11.038 15.0075 11.0729 14.9798 11.0866C14.7986 11.1558 14.61 11.1911 14.4149 11.1911C14.2194 11.1911 13.9825 11.0937 13.7036 10.8992C13.4247 10.7046 13.1354 10.4374 12.8354 10.097C12.5355 9.7566 12.1973 9.28088 11.8205 8.66979C11.4441 8.0587 11.0535 7.33647 10.649 6.5031L10.3144 5.89873C10.1052 5.50992 9.81939 4.94378 9.45674 4.20083C9.09387 3.45758 8.77313 2.73864 8.49431 2.04414C8.38285 1.75246 8.21541 1.5304 7.99228 1.37759L7.88757 1.3149C7.81795 1.25944 7.7062 1.20055 7.55291 1.13779C7.39939 1.07511 7.2392 1.03015 7.07169 1.0025L1.33923 1.04395C0.753444 1.04395 0.355984 1.1761 0.146702 1.44005L0.0629458 1.56491C0.0211041 1.63446 0 1.74553 0 1.89841C0 2.05122 0.0418417 2.23876 0.125598 2.46082C0.962433 4.41946 1.87247 6.30841 2.85572 8.12796C3.83896 9.9475 4.69338 11.4132 5.41847 12.5237C6.1437 13.6351 6.88293 14.6839 7.63615 15.6698C8.38937 16.6561 8.88796 17.2881 9.1319 17.5658C9.37614 17.8439 9.56798 18.0519 9.70743 18.1908L10.2306 18.6907C10.5653 19.0242 11.0568 19.4235 11.7054 19.8887C12.3542 20.3542 13.0723 20.8125 13.8604 21.2643C14.6486 21.7153 15.5655 22.0834 16.6117 22.3681C17.6577 22.653 18.6758 22.7674 19.6662 22.7122H22.0722C22.5602 22.6703 22.9298 22.5175 23.1811 22.2537L23.2644 22.1493C23.3203 22.0664 23.3727 21.9376 23.4211 21.7643C23.4701 21.5907 23.4944 21.3994 23.4944 21.1914C23.4801 20.5942 23.5257 20.056 23.6301 19.5769C23.7344 19.0979 23.8532 18.7367 23.9861 18.4935C24.119 18.2505 24.2689 18.0454 24.4358 17.8792C24.603 17.7126 24.7222 17.6117 24.7921 17.5769C24.8615 17.542 24.917 17.5183 24.9588 17.504C25.2936 17.393 25.6875 17.5005 26.1413 17.8272C26.5946 18.1536 27.0199 18.5567 27.4176 19.0357C27.8151 19.5151 28.2928 20.053 28.8506 20.6502C29.4087 21.2475 29.8968 21.6916 30.315 21.9837L30.7333 22.2337C31.0126 22.4005 31.3753 22.5534 31.8217 22.6922C32.2673 22.831 32.6577 22.8658 32.993 22.7964L38.3486 22.7132C38.8784 22.7132 39.2905 22.6258 39.5829 22.4525C39.8759 22.2789 40.0499 22.0876 40.1061 21.8796C40.162 21.6713 40.165 21.435 40.1167 21.1709C40.0671 20.9073 40.0182 20.7231 39.9695 20.6189Z"/>
</mask>
<path d="M39.9695 20.6189C39.9209 20.5145 39.8755 20.4279 39.8334 20.3585C39.1362 19.1081 37.804 17.5733 35.8374 15.7537L35.7958 15.712L35.775 15.6916L35.754 15.6706H35.7329C34.8404 14.8233 34.2752 14.2536 34.0385 13.9619C33.6054 13.4063 33.5084 12.8439 33.7451 12.274C33.9123 11.8435 34.5404 10.9342 35.628 9.54498C36.2001 8.80874 36.6532 8.21866 36.9878 7.7741C39.4009 4.57927 40.4471 2.53774 40.1261 1.64869L40.0015 1.44093C39.9177 1.31585 39.7016 1.20143 39.3533 1.09707C39.0042 0.992938 38.558 0.975716 38.0139 1.04512L31.9887 1.08656C31.8911 1.05212 31.7517 1.05533 31.5701 1.09707C31.3888 1.13881 31.298 1.15976 31.298 1.15976L31.1932 1.21193L31.1099 1.27462C31.0402 1.31607 30.9635 1.38897 30.8797 1.49318C30.7964 1.59702 30.7267 1.71889 30.671 1.85776C30.015 3.53844 29.2692 5.10104 28.4321 6.5455C27.916 7.40682 27.4421 8.15328 27.0092 8.78531C26.577 9.41713 26.2143 9.88263 25.9216 10.181C25.6285 10.4797 25.364 10.719 25.1264 10.8997C24.8892 11.0806 24.7082 11.157 24.5828 11.129C24.4571 11.1011 24.3388 11.0734 24.2267 11.0456C24.0316 10.9205 23.8746 10.7504 23.7563 10.5352C23.6374 10.3199 23.5574 10.0489 23.5156 9.72252C23.4739 9.39589 23.4493 9.11494 23.4423 8.87872C23.4358 8.64279 23.4388 8.30908 23.4529 7.87853C23.4674 7.44776 23.4739 7.1563 23.4739 7.00349C23.4739 6.47559 23.4843 5.90267 23.505 5.28457C23.5261 4.66648 23.5432 4.17675 23.5575 3.81596C23.5717 3.45481 23.5783 3.07271 23.5783 2.66989C23.5783 2.26707 23.5537 1.95117 23.505 1.72188C23.4569 1.49289 23.3831 1.27061 23.2859 1.05511C23.1881 0.839837 23.0449 0.673309 22.857 0.55509C22.6688 0.437018 22.4347 0.343318 22.1562 0.2737C21.4169 0.107099 20.4755 0.0169756 19.3315 0.00296451C16.7374 -0.0247658 15.0706 0.142054 14.3313 0.503205C14.0384 0.655795 13.7734 0.864283 13.5364 1.12801C13.2853 1.4337 13.2503 1.60052 13.4316 1.62796C14.2685 1.75282 14.8611 2.05151 15.2098 2.52373L15.3355 2.77396C15.4332 2.9545 15.5308 3.27412 15.6285 3.7324C15.726 4.19069 15.789 4.69764 15.8167 5.25298C15.8863 6.2671 15.8863 7.13521 15.8167 7.85737C15.7468 8.57982 15.6809 9.14223 15.618 9.54505C15.555 9.94787 15.4609 10.2743 15.3355 10.5242C15.2098 10.7742 15.1262 10.927 15.0843 10.9825C15.0424 11.038 15.0075 11.0729 14.9798 11.0866C14.7986 11.1558 14.61 11.1911 14.4149 11.1911C14.2194 11.1911 13.9825 11.0937 13.7036 10.8992C13.4247 10.7046 13.1354 10.4374 12.8354 10.097C12.5355 9.7566 12.1973 9.28088 11.8205 8.66979C11.4441 8.0587 11.0535 7.33647 10.649 6.5031L10.3144 5.89873C10.1052 5.50992 9.81939 4.94378 9.45674 4.20083C9.09387 3.45758 8.77313 2.73864 8.49431 2.04414C8.38285 1.75246 8.21541 1.5304 7.99228 1.37759L7.88757 1.3149C7.81795 1.25944 7.7062 1.20055 7.55291 1.13779C7.39939 1.07511 7.2392 1.03015 7.07169 1.0025L1.33923 1.04395C0.753444 1.04395 0.355984 1.1761 0.146702 1.44005L0.0629458 1.56491C0.0211041 1.63446 0 1.74553 0 1.89841C0 2.05122 0.0418417 2.23876 0.125598 2.46082C0.962433 4.41946 1.87247 6.30841 2.85572 8.12796C3.83896 9.9475 4.69338 11.4132 5.41847 12.5237C6.1437 13.6351 6.88293 14.6839 7.63615 15.6698C8.38937 16.6561 8.88796 17.2881 9.1319 17.5658C9.37614 17.8439 9.56798 18.0519 9.70743 18.1908L10.2306 18.6907C10.5653 19.0242 11.0568 19.4235 11.7054 19.8887C12.3542 20.3542 13.0723 20.8125 13.8604 21.2643C14.6486 21.7153 15.5655 22.0834 16.6117 22.3681C17.6577 22.653 18.6758 22.7674 19.6662 22.7122H22.0722C22.5602 22.6703 22.9298 22.5175 23.1811 22.2537L23.2644 22.1493C23.3203 22.0664 23.3727 21.9376 23.4211 21.7643C23.4701 21.5907 23.4944 21.3994 23.4944 21.1914C23.4801 20.5942 23.5257 20.056 23.6301 19.5769C23.7344 19.0979 23.8532 18.7367 23.9861 18.4935C24.119 18.2505 24.2689 18.0454 24.4358 17.8792C24.603 17.7126 24.7222 17.6117 24.7921 17.5769C24.8615 17.542 24.917 17.5183 24.9588 17.504C25.2936 17.393 25.6875 17.5005 26.1413 17.8272C26.5946 18.1536 27.0199 18.5567 27.4176 19.0357C27.8151 19.5151 28.2928 20.053 28.8506 20.6502C29.4087 21.2475 29.8968 21.6916 30.315 21.9837L30.7333 22.2337C31.0126 22.4005 31.3753 22.5534 31.8217 22.6922C32.2673 22.831 32.6577 22.8658 32.993 22.7964L38.3486 22.7132C38.8784 22.7132 39.2905 22.6258 39.5829 22.4525C39.8759 22.2789 40.0499 22.0876 40.1061 21.8796C40.162 21.6713 40.165 21.435 40.1167 21.1709C40.0671 20.9073 40.0182 20.7231 39.9695 20.6189Z" stroke="white" stroke-width="4" mask="url(#path-1-inside-1)"/>
</svg>
