<svg width="24" height="23" viewBox="0 0 24 23" fill="none" xmlns="http://www.w3.org/2000/svg">
<g clip-path="url(#clip0)">
<path d="M23.3286 2.2847C23.0477 1.94112 22.6269 1.75195 22.1436 1.75195C21.8809 1.75195 21.6026 1.80723 21.3166 1.91655L1.84751 9.34849C0.814306 9.74278 0.675154 10.3345 0.684103 10.6521C0.693052 10.9697 0.865545 11.5526 1.91945 11.888C1.92577 11.8899 1.93209 11.8918 1.93841 11.8936L5.97681 13.0493L8.16079 19.2945C8.45857 20.1459 9.12696 20.6748 9.90537 20.6748C10.3962 20.6748 10.8789 20.4691 11.3015 20.0803L13.7994 17.7803L17.4224 20.6976C17.4228 20.6979 17.4233 20.6981 17.4236 20.6985L17.458 20.7262C17.4612 20.7286 17.4645 20.7313 17.4677 20.7337C17.8704 21.0461 18.31 21.211 18.7394 21.2112H18.7395C19.5785 21.2112 20.2465 20.5902 20.4411 19.6293L23.6311 3.87785C23.7592 3.24561 23.6518 2.67987 23.3286 2.2847ZM7.3278 12.8298L15.1191 8.84943L10.2677 14.0044C10.1882 14.0888 10.1319 14.1922 10.1042 14.3046L9.16872 18.0939L7.3278 12.8298ZM10.3885 19.0888C10.3562 19.1185 10.3237 19.145 10.2912 19.1694L11.1591 15.6542L12.7379 16.9255L10.3885 19.0888ZM22.3103 3.61024L19.1203 19.3619C19.0896 19.5126 18.9915 19.8634 18.7394 19.8634C18.6148 19.8634 18.4583 19.7955 18.298 19.6721L14.1926 16.3665C14.1921 16.366 14.1914 16.3654 14.1907 16.3651L11.7479 14.398L18.7636 6.94324C18.9882 6.70459 19.0085 6.33907 18.8118 6.07691C18.615 5.81475 18.2582 5.73228 17.9664 5.88143L6.42743 11.7764L2.3341 10.6052L21.7972 3.17559C21.9616 3.11277 22.0764 3.09961 22.1436 3.09961C22.1848 3.09961 22.2582 3.10452 22.2854 3.13804C22.3212 3.18173 22.3668 3.33071 22.3103 3.61024Z" fill="white"/>
</g>
<defs>
<clipPath id="clip0">
<rect width="23" height="23" fill="white" transform="translate(0.683594)"/>
</clipPath>
</defs>
</svg>
