<?xml version="1.0" encoding="utf-8"?>
<!-- Generator: Adobe Illustrator 24.0.0, SVG Export Plug-In . SVG Version: 6.00 Build 0)  -->
<svg version="1.1" id="Слой_1" xmlns="http://www.w3.org/2000/svg" xmlns:xlink="http://www.w3.org/1999/xlink" x="0px" y="0px"
	 viewBox="0 0 1920 232.43" style="enable-background:new 0 0 1920 232.43;" xml:space="preserve">
<g>
	<path d="M312.95,2c5.07,0,10.02,0.83,14.87,2.48c4.84,1.65,9.14,3.97,12.89,6.94c3.74,2.97,6.72,6.67,8.92,11.07
		c2.2,4.41,3.3,9.25,3.3,14.54v90.22c0,5.73-1.1,10.74-3.3,15.04c-2.2,4.3-5.18,7.93-8.92,10.91c-3.75,2.97-8.04,5.24-12.89,6.77
		c-4.85,1.54-9.81,2.31-14.87,2.31H0V2H312.95z M295.44,127.25c3.97,0,7.49-1.37,10.57-4.13c3.08-2.75,4.63-6.33,4.63-10.74V51.9
		c0-4.41-1.27-7.98-3.8-10.74c-2.54-2.75-6.23-4.13-11.07-4.13H42.3v90.22H295.44z"/>
	<path d="M720.42,4.48c4.84,1.65,9.14,3.97,12.89,6.94c3.74,2.97,6.72,6.67,8.92,11.07c2.2,4.41,3.3,9.25,3.3,14.54v27.43
		c0,9.48-2.81,17.08-8.43,22.8c-5.62,5.73-12.72,9.48-21.32,11.24l30.07,63.78h-43.29l-33.71-62.79H434.89v62.79h-42.3V2h312.95
		C710.61,2,715.57,2.83,720.42,4.48z M434.89,64.46h253.14c3.97,0,7.49-0.71,10.57-2.15c3.08-1.43,4.63-4.35,4.63-8.76v-3.63
		c0-4.63-1.38-7.93-4.13-9.91c-2.76-1.98-6.56-2.97-11.4-2.97H434.89V64.46z"/>
	<path d="M1098.14,2c5.07,0,10.02,0.83,14.87,2.48c4.84,1.65,9.14,3.97,12.89,6.94c3.74,2.97,6.72,6.67,8.92,11.07
		c2.2,4.41,3.3,9.25,3.3,14.54v90.22c0,5.73-1.1,10.74-3.3,15.04c-2.2,4.3-5.18,7.93-8.92,10.91c-3.75,2.97-8.04,5.24-12.89,6.77
		c-4.85,1.54-9.81,2.31-14.87,2.31H825.17c-5.07,0-10.03-0.77-14.87-2.31c-4.85-1.54-9.14-3.8-12.89-6.77
		c-3.75-2.97-6.72-6.61-8.92-10.91c-2.2-4.3-3.3-9.3-3.3-15.04V37.03c0-5.5,1.1-10.46,3.3-14.87c2.2-4.41,5.17-8.1,8.92-11.07
		c3.74-2.97,8.04-5.23,12.89-6.77C815.14,2.77,820.1,2,825.17,2H1098.14z M1080.62,127.25c3.97,0,7.49-1.37,10.58-4.13
		c3.08-2.75,4.63-6.33,4.63-10.74V51.9c0-4.41-1.27-7.98-3.8-10.74c-2.54-2.75-6.23-4.13-11.07-4.13h-238.6
		c-5.51,0-9.37,1.38-11.57,4.13c-2.2,2.76-3.3,6.34-3.3,10.74v60.47c0,4.41,1.32,7.99,3.97,10.74c2.64,2.76,5.95,4.13,9.91,4.13
		H1080.62z"/>
	<path d="M1483.79,123.12c3.08-2.75,4.63-6.33,4.63-10.74V2h42.3v125.25c0,5.73-1.1,10.74-3.3,15.04c-2.2,4.3-5.18,7.93-8.92,10.91
		c-3.75,2.97-8.04,5.24-12.89,6.77c-4.85,1.54-9.8,2.31-14.87,2.31h-272.97c-5.07,0-10.03-0.77-14.87-2.31
		c-4.85-1.54-9.14-3.8-12.89-6.77c-3.75-2.97-6.72-6.61-8.92-10.91c-2.2-4.3-3.3-9.3-3.3-15.04V2h42.3v110.38
		c0,4.41,1.32,7.99,3.97,10.74c2.64,2.76,5.95,4.13,9.91,4.13h239.26C1477.18,127.25,1480.7,125.87,1483.79,123.12z"/>
	<path d="M1882,81.97l38,80.3h-42.96l-32.39-62.79h-202.91l-32.06,62.79h-43.29l37.67-80.3L1566.4,2h43.29l31.72,62.46h203.24
		L1877.04,2H1920L1882,81.97z"/>
</g>
<rect y="197.35" width="1920" height="35.03"/>
</svg>
