<svg width="17" height="17" viewBox="0 0 17 17" fill="none" xmlns="http://www.w3.org/2000/svg">
<g clip-path="url(#clip0)">
<path d="M4.90517 14.875H9.52704C9.82029 14.875 10.0583 14.637 10.0583 14.3437V13.0262L10.9451 13.2926C11.0478 13.3294 11.1824 13.3507 11.3241 13.3507C12.0416 13.3507 12.626 12.7705 12.626 12.0572V10.8099H13.379C13.8132 10.8099 14.1666 10.4578 14.1666 10.0243C14.1666 9.877 14.1241 9.73179 14.0441 9.60429L12.8428 7.71729C12.7004 7.49487 12.6253 7.23846 12.626 6.97708C12.626 4.301 10.4295 2.125 7.73 2.125C5.03054 2.125 2.83329 4.301 2.83329 6.97567C2.83329 7.97867 3.14142 8.94271 3.72508 9.76508C4.14938 10.3622 4.37392 11.0627 4.37392 11.7902V14.3437C4.37392 14.637 4.61192 14.875 4.90517 14.875ZM8.99579 13.8125H5.43642V11.7902C5.43642 10.8403 5.14388 9.92729 4.59138 9.14883C4.13663 8.5085 3.8965 7.75696 3.8965 6.97567C3.8965 4.8875 5.61633 3.1875 7.73071 3.1875C9.84508 3.1875 11.5635 4.88679 11.5635 6.97637C11.5635 7.44033 11.696 7.89437 11.9467 8.28892L12.876 9.74808H12.0955C11.8022 9.74808 11.5642 9.98608 11.5642 10.2793V12.058C11.5642 12.1855 11.4573 12.2889 11.3248 12.2889C11.3177 12.2867 11.2589 12.2782 11.2518 12.2761L9.68075 11.8037C9.51925 11.7555 9.34571 11.786 9.21113 11.8858C9.07654 11.9864 8.9965 12.1437 8.9965 12.3122V13.8125H8.99579Z" fill="#303030"/>
<path d="M0.354208 8.14583H16.6459C16.9391 8.14583 17.1771 7.90783 17.1771 7.61458C17.1771 7.32133 16.9391 7.08333 16.6459 7.08333H0.354208C0.060957 7.08333 -0.177042 7.32133 -0.177042 7.61458C-0.177042 7.90783 0.060957 8.14583 0.354208 8.14583Z" fill="#303030"/>
<path d="M16.4688 4.60417C16.762 4.60417 17 4.36617 17 4.07292V1.94792C17 0.873375 16.1266 0 15.0521 0H12.9271C12.6338 0 12.3958 0.238 12.3958 0.53125C12.3958 0.8245 12.6338 1.0625 12.9271 1.0625H15.0521C15.5401 1.0625 15.9375 1.45988 15.9375 1.94792V4.07292C15.9375 4.36617 16.1755 4.60417 16.4688 4.60417Z" fill="#303030"/>
<path d="M12.9271 17H15.0521C16.1266 17 17 16.1266 17 15.0521V12.9271C17 12.6338 16.762 12.3958 16.4688 12.3958C16.1755 12.3958 15.9375 12.6338 15.9375 12.9271V15.0521C15.9375 15.5401 15.5401 15.9375 15.0521 15.9375H12.9271C12.6338 15.9375 12.3958 16.1755 12.3958 16.4687C12.3958 16.762 12.6338 17 12.9271 17Z" fill="#303030"/>
<path d="M0.531211 4.60417C0.824461 4.60417 1.06246 4.36617 1.06246 4.07292V1.94792C1.06246 1.45988 1.45984 1.0625 1.94788 1.0625H4.07288C4.36613 1.0625 4.60413 0.8245 4.60413 0.53125C4.60413 0.238 4.36613 0 4.07288 0H1.94788C0.873336 0 -3.8147e-05 0.873375 -3.8147e-05 1.94792V4.07292C-3.8147e-05 4.36617 0.237962 4.60417 0.531211 4.60417Z" fill="#303030"/>
<path d="M1.94788 17H4.07288C4.36613 17 4.60413 16.762 4.60413 16.4687C4.60413 16.1755 4.36613 15.9375 4.07288 15.9375H1.94788C1.45984 15.9375 1.06246 15.5401 1.06246 15.0521V12.9271C1.06246 12.6338 0.824461 12.3958 0.531211 12.3958C0.237962 12.3958 -3.8147e-05 12.6338 -3.8147e-05 12.9271V15.0521C-3.8147e-05 16.1266 0.873336 17 1.94788 17Z" fill="#303030"/>
</g>
<defs>
<clipPath id="clip0">
<rect width="17" height="17" fill="white" transform="matrix(-1 0 0 1 17 0)"/>
</clipPath>
</defs>
</svg>
