<svg width="32" height="23" viewBox="0 0 32 23" fill="none" xmlns="http://www.w3.org/2000/svg">
<path d="M12.545 17.1011L12.109 16.2012L12.545 17.1011L21.2952 12.8622C21.2953 12.8622 21.2953 12.8621 21.2953 12.8621C22.3013 12.3748 22.317 10.9435 21.3246 10.4327C21.3246 10.4327 21.3246 10.4327 21.3245 10.4327L12.5743 5.92877C11.6521 5.45401 10.6065 6.14761 10.6065 7.13614V15.8791C10.6065 16.8537 11.6248 17.5469 12.545 17.1011ZM20.4235 11.0622L20.4234 11.0622L20.4235 11.0622ZM6.64599 1H25.354C28.4576 1 31 3.55981 31 6.75047V16.2495C31 19.4402 28.4576 22 25.354 22H6.64599C3.54244 22 1 19.4402 1 16.2495V6.75047C1 3.55981 3.54244 1 6.64599 1Z" stroke="white" stroke-width="2"/>
</svg>
